<svg xmlns="http://www.w3.org/2000/svg" xmlns:xlink="http://www.w3.org/1999/xlink" width="474" zoomAndPan="magnify" viewBox="0 0 355.5 83.249999" height="111" preserveAspectRatio="xMidYMid meet" version="1.0"><defs><g/><clipPath id="0b5a121073"><path d="M 1.339844 18.632812 L 48 18.632812 L 48 63 L 1.339844 63 Z M 1.339844 18.632812 " clip-rule="nonzero"/></clipPath></defs><g fill="#ffffff" fill-opacity="1"><g transform="translate(50.409762, 56.956869)"><g><path d="M 21.25 -35.421875 C 24.59375 -35.421875 27.597656 -34.914062 30.265625 -33.90625 C 32.929688 -32.894531 35.046875 -31.398438 36.609375 -29.421875 C 38.179688 -27.453125 38.96875 -25.050781 38.96875 -22.21875 L 28.296875 -22.21875 C 28.296875 -23.664062 27.648438 -24.835938 26.359375 -25.734375 C 25.078125 -26.628906 23.53125 -27.078125 21.71875 -27.078125 C 19.082031 -27.078125 17.085938 -26.375 15.734375 -24.96875 C 14.390625 -23.570312 13.71875 -21.59375 13.71875 -19.03125 L 13.71875 -15.796875 C 13.71875 -13.222656 14.390625 -11.238281 15.734375 -9.84375 C 17.085938 -8.445312 19.082031 -7.75 21.71875 -7.75 C 23.53125 -7.75 25.078125 -8.175781 26.359375 -9.03125 C 27.648438 -9.894531 28.296875 -11 28.296875 -12.34375 L 20.390625 -12.34375 L 20.390625 -19.4375 L 38.96875 -19.4375 L 38.96875 0 L 33.203125 0 L 32.09375 -3.4375 C 28.914062 -0.738281 24.765625 0.609375 19.640625 0.609375 C 13.867188 0.609375 9.53125 -0.898438 6.625 -3.921875 C 3.726562 -6.941406 2.28125 -11.4375 2.28125 -17.40625 C 2.28125 -23.3125 3.921875 -27.789062 7.203125 -30.84375 C 10.492188 -33.894531 15.175781 -35.421875 21.25 -35.421875 Z M 21.25 -35.421875 "/></g></g></g><g fill="#ffffff" fill-opacity="1"><g transform="translate(92.561773, 56.956869)"><g><path d="M 25.359375 0 L 14.171875 0 L 14.171875 -13.515625 L 0.359375 -34.8125 L 13.203125 -34.8125 L 19.890625 -23.234375 L 20.09375 -23.234375 L 26.765625 -34.8125 L 38.96875 -34.8125 L 25.359375 -13.515625 Z M 25.359375 0 "/></g></g></g><g fill="#ffffff" fill-opacity="1"><g transform="translate(131.930638, 56.956869)"><g><path d="M 33.65625 0 L 33.65625 -12.546875 C 33.65625 -14.097656 33.710938 -15.691406 33.828125 -17.328125 C 33.953125 -18.960938 34.082031 -20.335938 34.21875 -21.453125 C 34.351562 -22.566406 34.4375 -23.273438 34.46875 -23.578125 L 34.265625 -23.578125 L 27.828125 0 L 19.078125 0 L 12.609375 -23.53125 L 12.40625 -23.53125 C 12.4375 -23.226562 12.523438 -22.523438 12.671875 -21.421875 C 12.828125 -20.328125 12.972656 -18.960938 13.109375 -17.328125 C 13.242188 -15.691406 13.3125 -14.097656 13.3125 -12.546875 L 13.3125 0 L 3.03125 0 L 3.03125 -34.8125 L 18.828125 -34.8125 L 24.09375 -14.734375 L 24.296875 -14.734375 L 29.5 -34.8125 L 44.734375 -34.8125 L 44.734375 0 Z M 33.65625 0 "/></g></g></g><g fill="#ffffff" fill-opacity="1"><g transform="translate(179.699538, 56.956869)"><g><path d="M 26.921875 -34.8125 C 28.679688 -34.8125 30.289062 -34.445312 31.75 -33.71875 C 33.21875 -33 34.382812 -31.984375 35.25 -30.671875 C 36.113281 -29.359375 36.546875 -27.890625 36.546875 -26.265625 C 36.546875 -21.984375 34.601562 -19.285156 30.71875 -18.171875 L 30.71875 -17.96875 C 35.132812 -16.957031 37.34375 -14.054688 37.34375 -9.265625 C 37.34375 -7.441406 36.894531 -5.828125 36 -4.421875 C 35.113281 -3.023438 33.894531 -1.9375 32.34375 -1.15625 C 30.789062 -0.382812 29.085938 0 27.234375 0 L 3.75 0 L 3.75 -34.8125 Z M 14.9375 -21.25 L 22.625 -21.25 C 23.363281 -21.25 23.976562 -21.507812 24.46875 -22.03125 C 24.957031 -22.5625 25.203125 -23.210938 25.203125 -23.984375 L 25.203125 -24.5 C 25.203125 -25.238281 24.945312 -25.867188 24.4375 -26.390625 C 23.9375 -26.910156 23.332031 -27.171875 22.625 -27.171875 L 14.9375 -27.171875 Z M 14.9375 -8.09375 L 23.4375 -8.09375 C 24.175781 -8.09375 24.789062 -8.351562 25.28125 -8.875 C 25.769531 -9.40625 26.015625 -10.054688 26.015625 -10.828125 L 26.015625 -11.34375 C 26.015625 -12.113281 25.769531 -12.757812 25.28125 -13.28125 C 24.789062 -13.800781 24.175781 -14.0625 23.4375 -14.0625 L 14.9375 -14.0625 Z M 14.9375 -8.09375 "/></g></g></g><g fill="#ffffff" fill-opacity="1"><g transform="translate(219.068402, 56.956869)"><g><path d="M 36.796875 -24.140625 C 36.796875 -22.015625 36.21875 -20.09375 35.0625 -18.375 C 33.914062 -16.65625 32.25 -15.390625 30.0625 -14.578125 L 37.8125 0 L 25.25 0 L 19.078125 -12.703125 L 14.9375 -12.703125 L 14.9375 0 L 3.75 0 L 3.75 -34.8125 L 25.046875 -34.8125 C 27.546875 -34.8125 29.679688 -34.332031 31.453125 -33.375 C 33.222656 -32.414062 34.554688 -31.117188 35.453125 -29.484375 C 36.347656 -27.847656 36.796875 -26.066406 36.796875 -24.140625 Z M 25.40625 -23.6875 C 25.40625 -24.59375 25.097656 -25.347656 24.484375 -25.953125 C 23.878906 -26.566406 23.140625 -26.875 22.265625 -26.875 L 14.9375 -26.875 L 14.9375 -20.453125 L 22.265625 -20.453125 C 23.140625 -20.453125 23.878906 -20.757812 24.484375 -21.375 C 25.097656 -22 25.40625 -22.769531 25.40625 -23.6875 Z M 25.40625 -23.6875 "/></g></g></g><g fill="#ffffff" fill-opacity="1"><g transform="translate(258.437255, 56.956869)"><g><path d="M 27.078125 0 L 25.609375 -4.90625 L 13.40625 -4.90625 L 11.9375 0 L 0.5 0 L 13.203125 -34.8125 L 26.21875 -34.8125 L 38.921875 0 Z M 15.734375 -12.703125 L 23.28125 -12.703125 L 19.640625 -25.109375 L 19.4375 -25.109375 Z M 15.734375 -12.703125 "/></g></g></g><g fill="#ffffff" fill-opacity="1"><g transform="translate(297.80612, 56.956869)"><g><path d="M 27.234375 0 L 27.234375 -13.203125 L 14.9375 -13.203125 L 14.9375 0 L 3.75 0 L 3.75 -34.8125 L 14.9375 -34.8125 L 14.9375 -22.109375 L 27.234375 -22.109375 L 27.234375 -34.8125 L 38.40625 -34.8125 L 38.40625 0 Z M 27.234375 0 "/></g></g></g><g clip-path="url(#0b5a121073)"><path fill="#ffffff" d="M 33.050781 18.65625 C 32.058594 18.667969 30.648438 18.84375 28.710938 19.191406 C 27.65625 19.378906 27.394531 19.472656 27.117188 19.753906 C 26.796875 20.078125 26.78125 20.152344 26.746094 21.46875 C 26.710938 22.820312 26.714844 22.847656 27.011719 23.039062 C 27.175781 23.148438 27.730469 23.605469 28.242188 24.054688 C 29.4375 25.101562 29.648438 25.113281 30.847656 24.203125 C 31.371094 23.804688 31.398438 23.664062 30.953125 23.65625 C 30.730469 23.652344 29.980469 23.3125 30.171875 23.300781 C 30.214844 23.300781 30.671875 23.441406 31.191406 23.613281 C 32.792969 24.011719 33.414062 22.335938 34.683594 21.734375 C 37.292969 22.308594 36.316406 25.851562 38.394531 28.871094 C 39.578125 31.082031 40.585938 31.367188 43.269531 30.246094 C 43.429688 30.179688 43.472656 30.191406 43.414062 30.289062 C 43.28125 30.503906 41.453125 31.039062 40.851562 31.039062 C 40.09375 31.039062 39.585938 30.792969 39.082031 30.183594 L 38.648438 29.660156 C 36.359375 29.3125 34.851562 30.335938 34.1875 31.4375 C 34.070312 31.578125 31.566406 33.300781 31.335938 34.132812 C 31.207031 32.03125 33.65625 31.460938 33.5 31.4375 C 31.378906 31.824219 26.113281 31.609375 24.773438 33.601562 C 23.445312 31.476562 24.910156 29.320312 25.152344 28.492188 C 25.453125 27.476562 25.269531 26.386719 24.726562 25.507812 C 24.65625 25.210938 24.429688 24.953125 24.210938 24.742188 C 23.84375 24.390625 23.367188 24.160156 23.035156 23.777344 C 22.683594 23.371094 22.46875 22.800781 21.90625 22.609375 C 20.953125 22.289062 19.933594 22.589844 19.03125 22.933594 C 18.503906 23.132812 17.957031 23.273438 17.386719 23.3125 C 16.902344 23.34375 15.933594 22.8125 15.9375 23.292969 C 15.941406 23.585938 16.953125 23.097656 16.671875 23.265625 C 16.410156 23.425781 16.136719 23.507812 15.800781 23.558594 C 15.222656 23.636719 14.644531 23.707031 14.054688 23.722656 C 13.929688 23.726562 13.714844 23.652344 13.980469 23.742188 C 14.398438 23.890625 14.730469 24.136719 15.171875 24.296875 C 15.605469 24.457031 14.894531 24.539062 14.738281 24.550781 C 13.824219 24.617188 12.839844 24.847656 11.996094 24.492188 C 11.824219 24.421875 11.703125 24.433594 11.851562 24.625 C 12.164062 25.039062 12.714844 25.148438 13.1875 25.300781 C 13.367188 25.359375 13.863281 25.441406 13.832031 25.445312 C 13.226562 25.5 12.78125 26.105469 12.152344 26.015625 C 11.980469 25.992188 11.839844 26.003906 12.074219 26.105469 C 12.992188 26.5 13.816406 27.160156 14.796875 27.390625 C 14.628906 27.796875 14.660156 28.148438 14.875 28.710938 C 15.070312 29.21875 15.066406 29.253906 14.792969 29.832031 C 14.640625 30.164062 13.75 30.707031 13.59375 30.808594 C 13.214844 31.058594 14.179688 31.089844 14.613281 31.542969 C 14.933594 31.878906 14.785156 32.355469 14.667969 32.652344 C 15.367188 32.574219 15.113281 32.695312 15.71875 32.855469 C 15.148438 32.917969 14.808594 33.089844 14.917969 33.253906 C 15.277344 33.804688 15.769531 34.367188 16.566406 35.21875 C 17.949219 34.734375 18.417969 34.171875 18.746094 34.34375 C 19.601562 34.785156 19.691406 35.28125 19.097656 36.296875 C 18.746094 36.898438 18.546875 36.996094 17.15625 37.253906 C 15.078125 37.636719 13.3125 38.773438 12.675781 40.140625 C 11.945312 41.183594 12.734375 43.25 12.734375 43.25 C 12.734375 43.25 11.648438 42.195312 12.039062 40.699219 C 10 41.421875 8.71875 39.988281 6.730469 42.175781 C 6.300781 42.824219 6.230469 42.683594 6.636719 41.988281 C 6.929688 41.484375 6.953125 41.359375 6.878906 40.667969 C 6.835938 40.246094 6.640625 39.445312 6.445312 38.886719 C 6.023438 37.679688 5.777344 36.039062 5.898438 35.230469 C 5.96875 34.765625 6.015625 34.679688 6.144531 34.785156 C 6.734375 35.273438 7.679688 35.148438 8.234375 34.503906 C 8.417969 34.289062 8.714844 34.042969 8.898438 33.949219 C 9.484375 33.652344 9.714844 32.953125 9.714844 31.484375 C 9.714844 30.246094 10.371094 29.503906 9.910156 29.609375 C 9.285156 29.753906 6.25 27.78125 5.855469 28.140625 C 4.761719 28.519531 4.058594 31.691406 3.125 32.5625 C 3.128906 34.765625 2.789062 37.121094 2.230469 38.898438 C 1.417969 41.460938 1.332031 41.878906 1.332031 43.316406 C 1.332031 44.792969 1.632812 46.152344 2.167969 47.113281 C 2.332031 47.40625 2.433594 47.738281 2.398438 47.855469 C 2.347656 48.007812 2.460938 48.128906 2.824219 48.304688 C 3.308594 48.546875 3.324219 48.546875 4.429688 48.324219 C 7.433594 47.390625 8.578125 50.921875 13.523438 47.8125 C 14.296875 48.617188 12.460938 51.863281 13.917969 52.6875 C 13.917969 52.6875 16.867188 52.414062 17.574219 52.09375 C 17.195312 52.921875 13.921875 53.597656 13.921875 53.597656 C 12.675781 54.53125 14.96875 58.085938 13.125 60.992188 C 13.113281 61.007812 13.101562 61.023438 13.101562 61.027344 C 13.101562 61.210938 15.84375 59.601562 17.617188 59.789062 C 18.648438 59.898438 21.945312 60.664062 22.96875 61.644531 C 24.679688 63.289062 28.183594 61.839844 29.050781 61.421875 C 29.558594 59.359375 28.644531 55.425781 27.269531 53.867188 C 26.929688 53.488281 26.875 53.347656 26.9375 53.039062 C 26.988281 52.773438 26.96875 52.683594 26.859375 52.714844 C 25.390625 54.246094 23.976562 54.964844 23.625 57.703125 C 23.625 54.019531 25.96875 53.480469 26.703125 52.460938 C 27.863281 50.851562 29.914062 48.953125 31.527344 47.75 C 31.882812 47.484375 27.152344 47.191406 27.132812 44.746094 C 27.621094 47.105469 33 46.738281 33.246094 46.53125 C 34.152344 45.777344 35.054688 44.683594 35.832031 43.386719 C 36.414062 42.421875 37.128906 40.875 37.039062 40.785156 C 36.59375 41.152344 35.539062 41.640625 35.300781 41.070312 C 35.75 41.445312 36.769531 40.417969 37.320312 40.238281 C 41.148438 39.238281 43.101562 37.167969 45.582031 33.324219 C 46.199219 32.367188 47.632812 29.542969 47.746094 29.0625 C 48.109375 27.492188 45.269531 24.109375 41.527344 21.65625 C 38.652344 19.777344 36.84375 19.070312 33.90625 18.695312 C 33.664062 18.664062 33.378906 18.652344 33.050781 18.65625 Z M 33.050781 18.65625 " fill-opacity="1" fill-rule="nonzero"/></g></svg>