<svg xmlns="http://www.w3.org/2000/svg" xmlns:xlink="http://www.w3.org/1999/xlink" width="490" zoomAndPan="magnify" viewBox="0 0 367.5 113.249998" height="151" preserveAspectRatio="xMidYMid meet" version="1.0"><defs><g/><clipPath id="65b5207411"><path d="M 0.960938 38.125 L 47.898438 38.125 L 47.898438 82.832031 L 0.960938 82.832031 Z M 0.960938 38.125 " clip-rule="nonzero"/></clipPath></defs><g fill="#ffffff" fill-opacity="1"><g transform="translate(54.327132, 84.900511)"><g><path d="M 17.046875 -2.671875 L 19.21875 -22.390625 C 19.289062 -22.953125 19.03125 -23.234375 18.4375 -23.234375 C 17.882812 -23.234375 17.566406 -22.953125 17.484375 -22.390625 L 15.375 -2.734375 C 15.300781 -2.171875 15.488281 -1.835938 15.9375 -1.734375 C 16.195312 -1.648438 16.4375 -1.703125 16.65625 -1.890625 C 16.875 -2.078125 17.003906 -2.335938 17.046875 -2.671875 Z M 36.765625 -50.859375 L 36.765625 -27.46875 C 36.765625 -26.757812 36.410156 -26.40625 35.703125 -26.40625 L 21.21875 -26.40625 C 20.851562 -26.40625 20.507812 -26.550781 20.1875 -26.84375 C 19.875 -27.144531 19.738281 -27.484375 19.78125 -27.859375 L 22.109375 -49.625 C 22.179688 -50.1875 21.941406 -50.46875 21.390625 -50.46875 C 20.828125 -50.46875 20.507812 -50.1875 20.4375 -49.625 L 17.875 -25.90625 C 17.84375 -25.601562 17.914062 -25.332031 18.09375 -25.09375 C 18.28125 -24.851562 18.523438 -24.734375 18.828125 -24.734375 L 35.703125 -24.734375 C 36.410156 -24.734375 36.765625 -24.378906 36.765625 -23.671875 L 36.765625 -1.0625 C 36.765625 -0.351562 36.410156 0 35.703125 0 L 8.515625 0 C 6.210938 0 4.351562 -0.703125 2.9375 -2.109375 C 1.53125 -3.523438 0.828125 -5.382812 0.828125 -7.6875 L 0.828125 -44.453125 C 0.828125 -46.753906 1.53125 -48.609375 2.9375 -50.015625 C 4.351562 -51.429688 6.210938 -52.140625 8.515625 -52.140625 L 35.484375 -52.140625 C 36.335938 -52.140625 36.765625 -51.710938 36.765625 -50.859375 Z M 36.765625 -50.859375 "/></g></g></g><g fill="#ffffff" fill-opacity="1"><g transform="translate(91.920759, 84.900511)"><g><path d="M 2.171875 -12.8125 L 15.203125 -12.8125 C 15.503906 -12.8125 15.785156 -12.691406 16.046875 -12.453125 C 16.304688 -12.210938 16.414062 -11.941406 16.375 -11.640625 L 15.375 -2.453125 C 15.300781 -1.929688 15.539062 -1.671875 16.09375 -1.671875 C 16.65625 -1.671875 16.972656 -1.945312 17.046875 -2.5 L 18.21875 -13.484375 C 18.289062 -14.179688 17.972656 -14.53125 17.265625 -14.53125 L 2.171875 -14.53125 C 1.273438 -14.53125 0.828125 -14.976562 0.828125 -15.875 L 0.828125 -50.859375 C 0.828125 -51.710938 1.253906 -52.140625 2.109375 -52.140625 L 19.546875 -52.140625 C 20.398438 -52.140625 20.773438 -51.710938 20.671875 -50.859375 L 16.9375 -16.9375 C 16.863281 -16.375 17.101562 -16.09375 17.65625 -16.09375 C 18.21875 -16.09375 18.535156 -16.375 18.609375 -16.9375 L 22.34375 -50.859375 C 22.445312 -51.710938 22.925781 -52.140625 23.78125 -52.140625 L 35.484375 -52.140625 C 36.335938 -52.140625 36.765625 -51.710938 36.765625 -50.859375 L 36.765625 -7.6875 C 36.765625 -5.382812 36.054688 -3.523438 34.640625 -2.109375 C 33.234375 -0.703125 31.378906 0 29.078125 0 L 2.109375 0 C 1.253906 0 0.828125 -0.425781 0.828125 -1.28125 L 0.828125 -11.46875 C 0.828125 -12.363281 1.273438 -12.8125 2.171875 -12.8125 Z M 2.171875 -12.8125 "/></g></g></g><g fill="#ffffff" fill-opacity="1"><g transform="translate(129.514386, 84.900511)"><g><path d="M 20.28125 -52.140625 L 36.875 -52.140625 C 37.726562 -52.140625 38.097656 -51.710938 37.984375 -50.859375 L 35.421875 -27.46875 C 35.347656 -26.90625 35.59375 -26.625 36.15625 -26.625 C 36.707031 -26.625 37.019531 -26.90625 37.09375 -27.46875 L 39.65625 -50.859375 C 39.769531 -51.710938 40.253906 -52.140625 41.109375 -52.140625 L 53.8125 -52.140625 C 54.925781 -52.140625 55.484375 -51.582031 55.484375 -50.46875 L 55.484375 -1.0625 C 55.484375 -0.351562 55.128906 0 54.421875 0 L 38.765625 0 C 37.910156 0 37.519531 -0.425781 37.59375 -1.28125 L 40.71875 -29.96875 C 40.789062 -30.519531 40.550781 -30.796875 40 -30.796875 C 39.4375 -30.796875 39.117188 -30.519531 39.046875 -29.96875 L 35.921875 -1.28125 C 35.847656 -0.425781 35.382812 0 34.53125 0 L 22.5625 0 C 21.707031 0 21.222656 -0.425781 21.109375 -1.28125 L 18.046875 -29.96875 C 17.972656 -30.519531 17.65625 -30.796875 17.09375 -30.796875 C 16.539062 -30.796875 16.300781 -30.519531 16.375 -29.96875 L 19.4375 -1.28125 C 19.550781 -0.425781 19.179688 0 18.328125 0 L 1.890625 0 C 1.179688 0 0.828125 -0.351562 0.828125 -1.0625 L 0.828125 -51.078125 C 0.828125 -51.785156 1.179688 -52.140625 1.890625 -52.140625 L 15.59375 -52.140625 C 16.707031 -52.140625 17.320312 -51.597656 17.4375 -50.515625 L 20 -27.46875 C 20.070312 -26.90625 20.382812 -26.625 20.9375 -26.625 C 21.5 -26.625 21.742188 -26.90625 21.671875 -27.46875 L 19.109375 -50.859375 C 19.035156 -51.710938 19.425781 -52.140625 20.28125 -52.140625 Z M 20.28125 -52.140625 "/></g></g></g><g fill="#ffffff" fill-opacity="1"><g transform="translate(185.821285, 84.900511)"><g><path d="M 20.390625 -49.625 C 20.460938 -50.1875 20.21875 -50.46875 19.65625 -50.46875 C 19.101562 -50.46875 18.789062 -50.1875 18.71875 -49.625 L 13.640625 -2.5 C 13.566406 -1.945312 13.8125 -1.671875 14.375 -1.671875 C 14.925781 -1.671875 15.238281 -1.945312 15.3125 -2.5 Z M 1.890625 0 C 1.179688 0 0.828125 -0.351562 0.828125 -1.0625 L 0.828125 -51.078125 C 0.828125 -51.785156 1.179688 -52.140625 1.890625 -52.140625 L 29.078125 -52.140625 C 31.378906 -52.140625 33.234375 -51.429688 34.640625 -50.015625 C 36.054688 -48.609375 36.765625 -46.753906 36.765625 -44.453125 L 36.765625 -34.09375 C 36.765625 -31.789062 36.054688 -29.929688 34.640625 -28.515625 C 33.234375 -27.109375 31.378906 -26.40625 29.078125 -26.40625 L 20.328125 -26.40625 C 19.773438 -26.40625 19.5 -26.125 19.5 -25.5625 C 19.5 -25.007812 19.773438 -24.734375 20.328125 -24.734375 L 29.078125 -24.734375 C 31.378906 -24.734375 33.234375 -24.023438 34.640625 -22.609375 C 36.054688 -21.203125 36.765625 -19.347656 36.765625 -17.046875 L 36.765625 -7.6875 C 36.765625 -5.382812 36.054688 -3.523438 34.640625 -2.109375 C 33.234375 -0.703125 31.378906 0 29.078125 0 Z M 1.890625 0 "/></g></g></g><g fill="#ffffff" fill-opacity="1"><g transform="translate(223.414921, 84.900511)"><g><path d="M 22.109375 -24.734375 L 35.59375 -24.734375 C 36.445312 -24.734375 36.875 -24.304688 36.875 -23.453125 L 36.875 -1.28125 C 36.875 -0.425781 36.445312 0 35.59375 0 L 25.296875 0 C 23.878906 0 22.554688 -0.34375 21.328125 -1.03125 C 20.109375 -1.71875 19.144531 -2.644531 18.4375 -3.8125 C 17.726562 -4.988281 17.453125 -6.28125 17.609375 -7.6875 L 22.171875 -49.40625 C 22.203125 -49.925781 22.050781 -50.242188 21.71875 -50.359375 C 21.457031 -50.460938 21.195312 -50.410156 20.9375 -50.203125 C 20.675781 -50.003906 20.53125 -49.722656 20.5 -49.359375 L 15.265625 -1.28125 C 15.148438 -0.425781 14.664062 0 13.8125 0 L 1.890625 0 C 1.179688 0 0.828125 -0.351562 0.828125 -1.0625 L 0.828125 -51.078125 C 0.828125 -51.785156 1.179688 -52.140625 1.890625 -52.140625 L 29.1875 -52.140625 C 31.488281 -52.140625 33.34375 -51.429688 34.75 -50.015625 C 36.164062 -48.609375 36.875 -46.753906 36.875 -44.453125 L 36.875 -34.09375 C 36.875 -31.789062 36.164062 -29.929688 34.75 -28.515625 C 33.34375 -27.109375 31.488281 -26.40625 29.1875 -26.40625 L 22.109375 -26.40625 C 21.554688 -26.40625 21.28125 -26.125 21.28125 -25.5625 C 21.28125 -25.007812 21.554688 -24.734375 22.109375 -24.734375 Z M 22.109375 -24.734375 "/></g></g></g><g fill="#ffffff" fill-opacity="1"><g transform="translate(261.119929, 84.900511)"><g><path d="M 19.78125 -27.734375 L 22.171875 -49.625 C 22.242188 -50.1875 22.003906 -50.46875 21.453125 -50.46875 C 20.890625 -50.46875 20.570312 -50.1875 20.5 -49.625 L 18.109375 -27.734375 C 18.023438 -27.179688 18.265625 -26.90625 18.828125 -26.90625 C 19.378906 -26.90625 19.695312 -27.179688 19.78125 -27.734375 Z M 35.703125 0 L 19.9375 0 C 19.15625 0 18.457031 -0.285156 17.84375 -0.859375 C 17.238281 -1.441406 16.972656 -2.117188 17.046875 -2.890625 L 19.390625 -24.390625 C 19.460938 -24.953125 19.21875 -25.234375 18.65625 -25.234375 C 18.101562 -25.234375 17.789062 -24.953125 17.71875 -24.390625 L 15.375 -2.890625 C 15.300781 -2.117188 14.992188 -1.441406 14.453125 -0.859375 C 13.910156 -0.285156 13.253906 0 12.484375 0 L 1.890625 0 C 1.179688 0 0.828125 -0.351562 0.828125 -1.0625 L 0.828125 -51.078125 C 0.828125 -51.785156 1.179688 -52.140625 1.890625 -52.140625 L 29.078125 -52.140625 C 31.378906 -52.140625 33.234375 -51.429688 34.640625 -50.015625 C 36.054688 -48.609375 36.765625 -46.753906 36.765625 -44.453125 L 36.765625 -1.0625 C 36.765625 -0.351562 36.410156 0 35.703125 0 Z M 35.703125 0 "/></g></g></g><g fill="#ffffff" fill-opacity="1"><g transform="translate(298.713566, 84.900511)"><g><path d="M 23.734375 -52.140625 L 35.59375 -52.140625 C 36.300781 -52.140625 36.65625 -51.785156 36.65625 -51.078125 L 36.65625 -1.0625 C 36.65625 -0.351562 36.300781 0 35.59375 0 L 17.984375 0 C 17.140625 0 16.769531 -0.425781 16.875 -1.28125 L 19.390625 -24.390625 C 19.460938 -24.953125 19.21875 -25.234375 18.65625 -25.234375 C 18.101562 -25.234375 17.789062 -24.953125 17.71875 -24.390625 L 15.203125 -1.28125 C 15.097656 -0.425781 14.617188 0 13.765625 0 L 1.890625 0 C 1.179688 0 0.828125 -0.351562 0.828125 -1.0625 L 0.828125 -51.078125 C 0.828125 -51.785156 1.179688 -52.140625 1.890625 -52.140625 L 19.5 -52.140625 C 20.351562 -52.140625 20.722656 -51.710938 20.609375 -50.859375 L 18.109375 -27.734375 C 18.023438 -27.179688 18.265625 -26.90625 18.828125 -26.90625 C 19.378906 -26.90625 19.695312 -27.179688 19.78125 -27.734375 L 22.28125 -50.859375 C 22.394531 -51.710938 22.878906 -52.140625 23.734375 -52.140625 Z M 23.734375 -52.140625 "/></g></g></g><g clip-path="url(#65b5207411)"><path fill="#ffffff" d="M 32.746094 38.148438 C 31.753906 38.164062 30.339844 38.339844 28.398438 38.6875 C 27.339844 38.878906 27.078125 38.96875 26.800781 39.253906 C 26.480469 39.578125 26.464844 39.652344 26.429688 40.96875 C 26.390625 42.324219 26.394531 42.351562 26.691406 42.546875 C 26.859375 42.65625 27.414062 43.113281 27.929688 43.5625 C 29.128906 44.613281 29.335938 44.625 30.539062 43.710938 C 31.0625 43.3125 31.089844 43.171875 30.644531 43.164062 C 30.421875 43.160156 29.671875 42.820312 29.863281 42.808594 C 29.90625 42.804688 30.363281 42.945312 30.882812 43.121094 C 32.488281 43.519531 33.113281 41.839844 34.386719 41.238281 C 37 41.808594 36.019531 45.363281 38.101562 48.390625 C 39.289062 50.605469 40.300781 50.890625 42.988281 49.769531 C 43.152344 49.703125 43.195312 49.714844 43.136719 49.8125 C 43.003906 50.027344 41.167969 50.5625 40.566406 50.5625 C 39.808594 50.5625 39.300781 50.316406 38.792969 49.707031 L 38.355469 49.183594 C 36.066406 48.835938 34.554688 49.855469 33.886719 50.960938 C 33.769531 51.101562 31.261719 52.828125 31.027344 53.664062 C 30.898438 51.558594 33.355469 50.984375 33.199219 50.964844 C 31.070312 51.351562 25.792969 51.132812 24.449219 53.132812 C 23.121094 51.003906 24.589844 48.839844 24.828125 48.007812 C 25.128906 46.992188 24.945312 45.898438 24.40625 45.019531 C 24.335938 44.722656 24.105469 44.464844 23.886719 44.253906 C 23.515625 43.902344 23.039062 43.667969 22.707031 43.285156 C 22.355469 42.878906 22.140625 42.304688 21.578125 42.113281 C 20.621094 41.789062 19.597656 42.09375 18.695312 42.4375 C 18.167969 42.640625 17.617188 42.78125 17.046875 42.820312 C 16.5625 42.851562 15.589844 42.316406 15.59375 42.800781 C 15.597656 43.09375 16.609375 42.601562 16.328125 42.773438 C 16.066406 42.933594 15.792969 43.015625 15.453125 43.0625 C 14.875 43.144531 14.296875 43.214844 13.707031 43.230469 C 13.578125 43.234375 13.367188 43.15625 13.628906 43.25 C 14.050781 43.394531 14.386719 43.644531 14.824219 43.804688 C 15.257812 43.964844 14.550781 44.050781 14.390625 44.0625 C 13.476562 44.128906 12.488281 44.355469 11.640625 44 C 11.472656 43.929688 11.351562 43.941406 11.496094 44.132812 C 11.8125 44.550781 12.363281 44.660156 12.835938 44.808594 C 13.019531 44.867188 13.511719 44.953125 13.480469 44.957031 C 12.878906 45.011719 12.429688 45.617188 11.800781 45.527344 C 11.625 45.503906 11.484375 45.515625 11.71875 45.617188 C 12.640625 46.011719 13.46875 46.675781 14.449219 46.90625 C 14.28125 47.3125 14.3125 47.667969 14.527344 48.230469 C 14.722656 48.738281 14.71875 48.773438 14.449219 49.355469 C 14.292969 49.683594 13.402344 50.230469 13.246094 50.332031 C 12.867188 50.582031 13.832031 50.613281 14.265625 51.066406 C 14.589844 51.40625 14.4375 51.882812 14.320312 52.183594 C 15.023438 52.101562 14.769531 52.222656 15.371094 52.382812 C 14.800781 52.445312 14.460938 52.617188 14.570312 52.785156 C 14.929688 53.335938 15.425781 53.898438 16.222656 54.75 C 17.609375 54.265625 18.082031 53.707031 18.40625 53.875 C 19.265625 54.320312 19.355469 54.816406 18.761719 55.832031 C 18.40625 56.4375 18.207031 56.535156 16.8125 56.792969 C 14.730469 57.175781 12.960938 58.316406 12.324219 59.6875 C 11.589844 60.730469 12.382812 62.804688 12.382812 62.804688 C 12.382812 62.804688 11.292969 61.746094 11.683594 60.246094 C 9.640625 60.96875 8.355469 59.53125 6.367188 61.726562 C 5.933594 62.378906 5.863281 62.234375 6.269531 61.539062 C 6.566406 61.035156 6.589844 60.910156 6.515625 60.214844 C 6.46875 59.792969 6.273438 58.992188 6.078125 58.429688 C 5.65625 57.21875 5.410156 55.574219 5.53125 54.765625 C 5.597656 54.300781 5.648438 54.210938 5.777344 54.316406 C 6.367188 54.808594 7.316406 54.679688 7.871094 54.035156 C 8.054688 53.824219 8.355469 53.570312 8.539062 53.480469 C 9.125 53.183594 9.359375 52.480469 9.359375 51.011719 C 9.359375 49.769531 10.011719 49.027344 9.550781 49.132812 C 8.925781 49.277344 5.882812 47.296875 5.488281 47.660156 C 4.394531 48.035156 3.6875 51.21875 2.75 52.089844 C 2.753906 54.296875 2.414062 56.660156 1.855469 58.441406 C 1.039062 61.007812 0.953125 61.429688 0.953125 62.867188 C 0.953125 64.347656 1.253906 65.714844 1.789062 66.675781 C 1.953125 66.96875 2.058594 67.304688 2.023438 67.417969 C 1.972656 67.574219 2.085938 67.691406 2.449219 67.871094 C 2.933594 68.113281 2.953125 68.113281 4.058594 67.890625 C 7.070312 66.953125 8.214844 70.492188 13.171875 67.378906 C 13.949219 68.183594 12.109375 71.4375 13.566406 72.261719 C 13.566406 72.261719 16.523438 71.988281 17.234375 71.667969 C 16.851562 72.496094 13.574219 73.175781 13.574219 73.175781 C 12.324219 74.109375 14.621094 77.671875 12.773438 80.589844 C 12.761719 80.605469 12.753906 80.621094 12.753906 80.621094 C 12.753906 80.804688 15.5 79.195312 17.277344 79.382812 C 18.3125 79.492188 21.613281 80.257812 22.640625 81.242188 C 24.355469 82.890625 27.867188 81.4375 28.738281 81.019531 C 29.25 78.949219 28.328125 75.007812 26.953125 73.445312 C 26.613281 73.066406 26.554688 72.925781 26.617188 72.617188 C 26.671875 72.351562 26.648438 72.257812 26.542969 72.292969 C 25.066406 73.824219 23.652344 74.546875 23.300781 77.289062 C 23.300781 73.597656 25.648438 73.058594 26.382812 72.035156 C 27.546875 70.421875 29.601562 68.519531 31.222656 67.3125 C 31.578125 67.050781 26.835938 66.753906 26.816406 64.300781 C 27.304688 66.667969 32.699219 66.296875 32.945312 66.09375 C 33.847656 65.335938 34.757812 64.238281 35.535156 62.941406 C 36.117188 61.972656 36.835938 60.421875 36.746094 60.332031 C 36.296875 60.703125 35.242188 61.191406 35.003906 60.617188 C 35.453125 60.992188 36.476562 59.964844 37.027344 59.785156 C 40.863281 58.78125 42.820312 56.707031 45.308594 52.855469 C 45.925781 51.894531 47.363281 49.0625 47.476562 48.582031 C 47.84375 47.007812 44.996094 43.617188 41.242188 41.160156 C 38.363281 39.273438 36.550781 38.566406 33.605469 38.191406 C 33.363281 38.160156 33.078125 38.144531 32.746094 38.148438 Z M 32.746094 38.148438 " fill-opacity="1" fill-rule="nonzero"/></g></svg>